<?xml version="1.0" encoding="utf-8"?>
<svg version="1.1" id="Layer_1" xmlns="http://www.w3.org/2000/svg" xmlns:xlink="http://www.w3.org/1999/xlink" x="0px" y="0px"
	 viewBox="0 0 50 50" style="enable-background:new 0 0 50 50;" xml:space="preserve">
<style type="text/css">
	.st0{fill:#EBBB64;}
</style>
<g>
	<g>
		<path class="st0" d="M25,50c-0.2,0-0.3-0.1-0.5-0.2L0.2,25.5C0.1,25.3,0,25.2,0,25s0.1-0.4,0.2-0.5L24.5,0.2c0.3-0.3,0.7-0.3,1,0
			l24.3,24.3c0.1,0.1,0.2,0.3,0.2,0.5c0,0.2-0.1,0.4-0.2,0.5L25.5,49.8C25.4,49.9,25.2,50,25,50z M1.6,25L25,48.4L48.4,25L25,1.6
			L1.6,25z"/>
	</g>
	<g>
		<path id="XMLID_3_" class="st0" d="M24.6,35.9c-0.2,0-0.3-0.1-0.5-0.2l-8.4-8.4c-0.1-0.1-0.2-0.3-0.2-0.5c0-0.2,0.1-0.4,0.2-0.5
			l6.2-6.2c0.3-0.3,0.7-0.3,1,0c0.3,0.3,0.3,0.7,0,1l-5.7,5.7l7.4,7.4l17-17c0.3-0.3,0.7-0.3,1,0c0.3,0.3,0.3,0.7,0,1L25.1,35.7
			C24.9,35.8,24.7,35.9,24.6,35.9z"/>
	</g>
	<g>
		<path class="st0" d="M25.3,19.7c-0.5,0-1-0.2-1.4-0.6c-0.8-0.8-0.8-2.1,0-2.8c0.4-0.4,0.9-0.6,1.4-0.6c0,0,0,0,0,0
			c0.5,0,1,0.2,1.4,0.6c0.8,0.8,0.8,2.1,0,2.8C26.4,19.6,25.8,19.7,25.3,19.7z M25.3,17.1c-0.2,0-0.3,0.1-0.5,0.2
			c-0.3,0.3-0.3,0.7,0,0.9c0.3,0.3,0.7,0.3,0.9,0c0.3-0.3,0.3-0.7,0-0.9c0,0,0,0,0,0C25.7,17.2,25.5,17.1,25.3,17.1L25.3,17.1z"/>
	</g>
</g>
</svg>
