<?xml version="1.0" encoding="utf-8"?>
<svg version="1.1" id="Layer_1" xmlns="http://www.w3.org/2000/svg" xmlns:xlink="http://www.w3.org/1999/xlink" x="0px" y="0px"
	 viewBox="0 0 50 50" style="enable-background:new 0 0 50 50;" xml:space="preserve">
<style type="text/css">
	.st0{fill:#EBBB64;}
</style>
<g>
	<g>
		<g>
			<path id="XMLID_4_" class="st0" d="M25.1,44.7c-0.2,0-0.4-0.1-0.5-0.2L0.2,18.6C0,18.4-0.1,18,0.1,17.8l6.3-11
				C6.5,6.6,6.8,6.4,7,6.4h3.3c0.4,0,0.7,0.3,0.7,0.7s-0.3,0.7-0.7,0.7H7.4L1.5,18l23.6,25l23.3-25L41.9,7.8H25
				c-0.4,0-0.7-0.3-0.7-0.7s0.3-0.7,0.7-0.7h17.3c0.2,0,0.5,0.1,0.6,0.3l7,11c0.2,0.3,0.1,0.6-0.1,0.8L25.6,44.5
				C25.5,44.6,25.3,44.7,25.1,44.7z"/>
		</g>
	</g>
	<g>
		<path class="st0" d="M20.2,9c-1,0-1.8-0.8-1.8-1.8s0.8-1.8,1.8-1.8c1,0,1.8,0.8,1.8,1.8S21.3,9,20.2,9z M20.2,6.7
			c-0.3,0-0.5,0.2-0.5,0.5c0,0.3,0.2,0.5,0.5,0.5c0.3,0,0.5-0.2,0.5-0.5C20.7,6.9,20.5,6.7,20.2,6.7z"/>
	</g>
	<g>
		<path id="XMLID_1_" class="st0" d="M35.7,33.3c-0.2,0-0.4-0.1-0.5-0.2L10,7.6c-0.3-0.3-0.3-0.7,0-1c0.3-0.3,0.7-0.3,1,0l25.2,25.5
			c0.3,0.3,0.3,0.7,0,1C36.1,33.3,35.9,33.3,35.7,33.3z"/>
	</g>
</g>
</svg>
