<svg width="16" height="16" viewBox="0 0 16 16" fill="none" xmlns="http://www.w3.org/2000/svg">
<path d="M7.19976 0C8.18813 0 9.06739 0.173285 9.83755 0.519856C10.6077 0.866426 11.2559 1.33494 11.7822 1.92539C12.3085 2.51584 12.7064 3.20257 12.9759 3.98556C13.2583 4.76855 13.3995 5.59005 13.3995 6.45006C13.3995 7.27156 13.2776 8.06739 13.0337 8.83754C12.7898 9.59487 12.424 10.2752 11.9362 10.8785C11.4613 11.4689 10.8708 11.9567 10.1649 12.3418C9.45888 12.7268 8.6438 12.945 7.71962 12.9964C8.37425 13.0092 8.95187 13.0862 9.45247 13.2274C9.95307 13.3815 10.4216 13.5419 10.858 13.7088C11.3073 13.8885 11.7501 14.0489 12.1865 14.1901C12.6229 14.3313 13.0915 14.4019 13.5921 14.4019C13.7718 14.4019 13.9836 14.3763 14.2274 14.3249C14.4842 14.2864 14.7537 14.1837 15.0361 14.0168L15.0939 14.0554L15.3634 14.5945L15.3442 14.6715C15.0489 15.0437 14.6895 15.3582 14.2659 15.6149C13.8424 15.8716 13.3674 16 12.8412 16C12.4047 16 11.9555 15.8973 11.4934 15.6919C11.0441 15.4994 10.5692 15.2812 10.0686 15.0373C9.56799 14.8063 9.04813 14.588 8.50902 14.3827C7.96992 14.1901 7.40513 14.0939 6.81468 14.0939C6.31408 14.0939 5.82631 14.1773 5.35138 14.3442C4.88929 14.511 4.54914 14.6907 4.33093 14.8833L4.27316 14.864L4.06137 14.1131L4.08063 14.0554C4.36302 13.8628 4.74168 13.651 5.21661 13.42C5.69154 13.1889 6.20497 13.0542 6.75692 13.0156C5.80706 13.0028 4.97272 12.8231 4.25391 12.4765C3.5351 12.13 2.93181 11.6679 2.44404 11.0903C1.96911 10.4998 1.60971 9.81949 1.36582 9.04934C1.12194 8.27918 1 7.4641 1 6.60409C1 5.69274 1.1412 4.83915 1.42359 4.04332C1.70598 3.23466 2.11031 2.5351 2.63658 1.94465C3.16286 1.34136 3.81107 0.866426 4.58123 0.519856C5.35138 0.173285 6.22423 0 7.19976 0ZM7.18051 11.4176C7.80947 11.4176 8.36783 11.2892 8.8556 11.0325C9.3562 10.7629 9.77337 10.4099 10.1071 9.97353C10.4408 9.52427 10.6976 9.00441 10.8773 8.41396C11.057 7.81067 11.1468 7.16887 11.1468 6.48857C11.1468 5.79543 11.0505 5.15363 10.858 4.56318C10.6783 3.95989 10.4087 3.44003 10.0493 3.00361C9.70277 2.56719 9.27918 2.22704 8.77858 1.98315C8.27798 1.72643 7.7132 1.59807 7.08424 1.59807C6.46811 1.59807 5.92258 1.72002 5.44765 1.9639C4.97272 2.20778 4.57481 2.54793 4.25391 2.98436C3.93301 3.42078 3.68913 3.94063 3.52226 4.54392C3.3554 5.13438 3.27196 5.77617 3.27196 6.46931C3.27196 7.22663 3.36823 7.91336 3.56077 8.52948C3.75331 9.13277 4.02286 9.65263 4.36943 10.089C4.716 10.5126 5.12675 10.84 5.60168 11.071C6.07661 11.302 6.60289 11.4176 7.18051 11.4176Z" fill="#EBBC65"/>
</svg>
