<svg version="1.1" id="Layer_1" xmlns="http://www.w3.org/2000/svg" xmlns:xlink="http://www.w3.org/1999/xlink" x="0px" y="0px"
	 viewBox="0 0 50 50" style="enable-background:new 0 0 50 50;" xml:space="preserve">
<style type="text/css">
	.st0{fill:#ccc5b9;}
</style>
<g>
	<g>
		<path class="st0" d="M18.6,16.5C18.6,16.5,18.6,16.5,18.6,16.5c-0.5,0-0.9-0.2-1.3-0.5c-0.7-0.7-0.7-1.8,0-2.5
			c0.7-0.7,1.8-0.7,2.5,0c0.3,0.3,0.5,0.8,0.5,1.3c0,0.5-0.2,0.9-0.5,1.3C19.5,16.3,19,16.5,18.6,16.5z M18.5,14.1
			c-0.1,0-0.3,0.1-0.4,0.2c-0.2,0.2-0.2,0.6,0,0.8c0.1,0.1,0.2,0.2,0.4,0.2c0,0,0,0,0,0c0.1,0,0.3-0.1,0.4-0.2
			c0.1-0.1,0.2-0.2,0.2-0.4c0-0.2-0.1-0.3-0.2-0.4C18.8,14.2,18.7,14.1,18.5,14.1z"/>
	</g>
	<g>
		<path class="st0" d="M17.4,50C17.4,50,17.4,50,17.4,50c-4.2,0-8.1-1.6-11-4.6c-5.3-5.3-6.1-13.6-1.8-19.8c0.2-0.3,0.6-0.3,0.9-0.2
			c0.3,0.2,0.3,0.6,0.2,0.9C1.6,32,2.3,39.7,7.2,44.6c2.7,2.7,6.3,4.2,10.1,4.2c0,0,0,0,0,0c3.8,0,7.4-1.5,10.1-4.2
			c2.7-2.7,4.2-6.3,4.2-10.1c0-1.4-0.2-2.8-0.6-4.2H18.5c-0.2,0-0.3-0.1-0.4-0.2c-0.1-0.1-0.2-0.3-0.2-0.4l0.1-10.1
			c0-0.2,0.1-0.3,0.2-0.4c0.1-0.1,0.3-0.2,0.5-0.2c3.7,0.3,7,1.9,9.7,4.5c1.6,1.6,2.8,3.5,3.6,5.6H47V1.2H19.1v8.1
			c0,0.3-0.3,0.6-0.6,0.6c-0.3,0-0.6-0.3-0.6-0.6V0.6c0-0.3,0.3-0.6,0.6-0.6h29.1c0.3,0,0.6,0.3,0.6,0.6v29.1c0,0.3-0.3,0.6-0.6,0.6
			H32.3c0.4,1.3,0.6,2.7,0.6,4.2c0,4.1-1.6,8-4.5,11C25.4,48.4,21.5,50,17.4,50z M19.1,29.1h11.4c-0.7-1.7-1.8-3.3-3.1-4.7
			c-2.3-2.3-5.1-3.7-8.3-4.1L19.1,29.1z"/>
	</g>
</g>
</svg>
